# File created by Blade
# Date/Time:  Tue Jan 27 17:27:44 2015
#---------------------------------------------------------
:version 1.10
:name HOM
:units
  mass 1.0
  length 1.000000
  angle deg
:documentation
     Acclaim Skeleton File
:root
   axis xyz
   order TX TY TZ RX RY RZ
   position 0.000000 0.000000 0.000000
   orientation 0 0 0
:bonedata
   begin
      id 1
      name Spine_dum
      direction 0.000000 1.000000 0.000000
      length 7.539951
      axis 0.0 0.0 0.0 xyz
   end
   begin
      id 2
      name LeftUpLeg_dum
      direction 1.000000 0.000000 0.000000
      length 3.345476
      axis 0.0 0.0 0.0 xyz
   end
   begin
      id 3
      name RightUpLeg_dum
      direction -1.000000 0.000000 0.000000
      length 3.345476
      axis 0.0 0.0 0.0 xyz
   end
   begin
      id 4
      name Spine
      direction 0.000000 1.000000 0.000000
      length 0.000000
      axis 0.0 0.0 0.0 xyz
      dof rx ry rz
   end
   begin
      id 5
      name Spine_dum1
      direction 0.000000 1.000000 0.000000
      length 15.093809
      axis 0.0 0.0 0.0 xyz
   end
   begin
      id 6
      name Spine_dum2
      direction 0.000000 1.000000 0.000000
      length 9.738928
      axis 0.0 0.0 0.0 xyz
   end
   begin
      id 7
      name Spine_dum3
      direction 0.000000 1.000000 0.000000
      length 9.738928
      axis 0.0 0.0 0.0 xyz
   end
   begin
      id 8
      name Head
      direction 0.000000 1.000000 0.000000
      length 4.527550
      axis 0.0 0.0 0.0 xyz
      dof rx ry rz
   end
   begin
      id 9
      name LeftShoulder
      direction 1.000000 0.000000 0.000000
      length 7.084015
      axis 0.0 0.0 -90.0 xyz
      dof rx ry rz
   end
   begin
      id 10
      name LeftArm
      direction 1.000000 0.000000 0.000000
      length 10.259319
      axis 0.0 0.0 -90.0 xyz
      dof rx ry rz
   end
   begin
      id 11
      name LeftForeArm
      direction 1.000000 0.000000 0.000000
      length 9.896984
      axis 0.0 0.0 -90.0 xyz
      dof ry rz rx
   end
   begin
      id 12
      name LeftHand
      direction 0.000000 0.000000 0.000000
      length 0.000000
      axis 0.0 0.0 -90.0 xyz
      dof rx ry rz
   end
   begin
      id 13
      name LeftHand_dum1
      direction 0.000000 0.000000 0.000000
      length 0.000000
      axis 0.0 0.0 -90.0 xyz
   end
   begin
      id 14
      name LeftHand_dum2
      direction 1.000000 0.000000 0.000000
      length 3.937000
      axis 0.0 0.0 -90.0 xyz
   end
   begin
      id 15
      name LeftHandThumb1
      direction 0.000000 0.000000 1.000000
      length 3.937000
      axis 0.0 0.0 -90.0 xyz
      dof rx rz ry
   end
   begin
      id 16
      name RightShoulder
      direction -1.000000 0.000000 0.000000
      length 7.084015
      axis 0.0 0.0 90.0 xyz
      dof rx ry rz
   end
   begin
      id 17
      name RightArm
      direction -1.000000 0.000000 0.000000
      length 10.259319
      axis 0.0 0.0 90.0 xyz
      dof rx ry rz
   end
   begin
      id 18
      name RightForeArm
      direction -1.000000 0.000000 0.000000
      length 9.896984
      axis 0.0 0.0 90.0 xyz
      dof ry rz rx
   end
   begin
      id 19
      name RightHand
      direction 0.000000 0.000000 0.000000
      length 0.000000
      axis 0.0 0.0 90.0 xyz
      dof rx ry rz
   end
   begin
      id 20
      name RightHand_dum1
      direction 0.000000 0.000000 0.000000
      length 0.000000
      axis 0.0 0.0 90.0 xyz
   end
   begin
      id 21
      name RightHand_dum2
      direction -1.000000 0.000000 0.000000
      length 3.937000
      axis 0.0 0.0 90.0 xyz
   end
   begin
      id 22
      name RightHandThumb1
      direction 0.000000 0.000000 1.000000
      length 3.937000
      axis 0.0 0.0 90.0 xyz
      dof rx rz ry
   end
   begin
      id 23
      name LeftUpLeg
      direction 0.000000 -1.000000 0.000000
      length 19.114733
      axis 0.0 0.0 0.0 xyz
      dof rx ry rz
   end
   begin
      id 24
      name LeftLeg
      direction 0.000000 -1.000000 0.000000
      length 16.045604
      axis 0.0 0.0 0.0 xyz
      dof rx ry rz
   end
   begin
      id 25
      name LeftFoot
      direction 0.000000 -0.258819 0.965926
      length 5.543155
      axis 15.0 0.0 0.0 xyz
      dof rx ry rz
   end
   begin
      id 26
      name LeftToeBase
      direction 0.000000 0.000000 1.000000
      length 2.952750
      axis 0.0 0.0 0.0 xyz
      dof rx ry rz
   end
   begin
      id 27
      name RightUpLeg
      direction 0.000000 -1.000000 0.000000
      length 19.114733
      axis 0.0 0.0 0.0 xyz
      dof rx ry rz
   end
   begin
      id 28
      name RightLeg
      direction 0.000000 -1.000000 0.000000
      length 16.045604
      axis 0.0 0.0 0.0 xyz
      dof rx ry rz
   end
   begin
      id 29
      name RightFoot
      direction 0.000000 -0.258819 0.965926
      length 5.543155
      axis 15.0 0.0 0.0 xyz
      dof rx ry rz
   end
   begin
      id 30
      name RightToeBase
      direction 0.000000 0.000000 1.000000
      length 2.952750
      axis 0.0 0.0 0.0 xyz
      dof rx ry rz
   end
:hierarchy
   begin
      root Spine_dum LeftUpLeg_dum RightUpLeg_dum
      Spine_dum Spine
      LeftUpLeg_dum LeftUpLeg
      RightUpLeg_dum RightUpLeg
      Spine Spine_dum1 Spine_dum2 Spine_dum3
      Spine_dum1 Head
      Spine_dum2 LeftShoulder
      Spine_dum3 RightShoulder
      LeftShoulder LeftArm
      LeftArm LeftForeArm
      LeftForeArm LeftHand
      LeftHand LeftHand_dum1 LeftHand_dum2
      LeftHand_dum1 LeftHandThumb1
      RightShoulder RightArm
      RightArm RightForeArm
      RightForeArm RightHand
      RightHand RightHand_dum1 RightHand_dum2
      RightHand_dum1 RightHandThumb1
      LeftUpLeg LeftLeg
      LeftLeg LeftFoot
      LeftFoot LeftToeBase
      RightUpLeg RightLeg
      RightLeg RightFoot
      RightFoot RightToeBase
   end

# File created by Blade
# Date/Time:  Tue Jan 27 17:27:32 2015
# Frame Rate: 120.000 fps
#------------------------------------------------------
:FULLY-SPECIFIED
:DEGREES
572
root 4.943687 37.049839 0.809250 2.150927 30.732670 -3.530065
Spine 3.047634 5.573391 0.605745
Head 7.191869 -11.838770 7.024117
LeftShoulder -4.803776 -9.135812 9.811792
LeftArm 0.462300 -14.514750 -57.027235
LeftForeArm 6.236996 -0.000000 108.402689
LeftHand -14.106180 -0.000000 31.528024
LeftHandThumb1 -26.253704 0.000000 33.147579
RightShoulder -8.662848 -20.138316 1.712638
RightArm 16.637678 -26.164487 58.355324
RightForeArm 183.526164 -0.000000 29.175440
RightHand 0.576545 -0.000000 0.253425
RightHandThumb1 -24.326973 -0.000000 -32.862282
LeftUpLeg -4.664727 -10.700526 0.078181
LeftLeg 8.649538 -0.000000 -0.000000
LeftFoot -12.313254 -11.625625 -10.436312
LeftToeBase 13.127807 -0.000000 -0.000000
RightUpLeg -23.227049 12.707289 -3.461190
RightLeg 103.594416 -0.000000 -0.000000
RightFoot -4.165954 4.774452 3.816404
RightToeBase -1.460819 -0.000000 0.000000
573
root 4.928561 37.056697 0.795012 2.237566 30.853436 -3.643500
Spine 2.910057 5.490522 0.722180
Head 7.188744 -11.852156 6.994354
LeftShoulder -4.721688 -9.184207 9.745014
LeftArm 0.427428 -14.467302 -56.970974
LeftForeArm 6.254268 -0.000000 108.433568
LeftHand -14.115575 0.000000 31.443501
LeftHandThumb1 -26.253704 0.000000 33.147579
RightShoulder -8.670110 -20.151793 1.700615
RightArm 16.594161 -26.086431 58.355149
RightForeArm 183.592545 -0.000000 29.161516
RightHand 0.602009 -0.000000 0.236040
RightHandThumb1 -24.326973 -0.000000 -32.862282
LeftUpLeg -4.880461 -10.711405 0.230334
LeftLeg 8.698173 -0.000000 -0.000000
LeftFoot -12.256029 -11.763663 -10.450668
LeftToeBase 13.119641 -0.000000 -0.000000
RightUpLeg -23.649330 12.760630 -3.488418
RightLeg 104.836443 -0.000000 -0.000000
RightFoot -4.119507 4.975474 3.650193
RightToeBase -1.536825 -0.000000 0.000000
574
root 4.910578 37.064625 0.778508 2.355972 30.974402 -3.775541
Spine 2.728587 5.404137 0.856351
Head 7.160987 -11.853648 6.973902
LeftShoulder -4.660143 -9.196587 9.679596
LeftArm 0.434218 -14.411479 -56.916303
LeftForeArm 6.252208 -0.000000 108.442130
LeftHand -14.149132 -0.000000 31.462778
LeftHandThumb1 -26.253704 0.000000 33.147579
RightShoulder -8.693705 -20.169529 1.713117
RightArm 16.558031 -26.064890 58.289761
RightForeArm 183.735978 -0.000000 29.179930
RightHand 0.632671 -0.000000 0.259018
RightHandThumb1 -24.326973 -0.000000 -32.862282
LeftUpLeg -5.126165 -10.800181 0.412335
LeftLeg 8.704097 -0.000000 -0.000000
LeftFoot -12.189064 -11.840813 -10.503551
LeftToeBase 13.090174 -0.000000 -0.000000
RightUpLeg -24.141156 12.815419 -3.516567
RightLeg 106.191988 -0.000000 -0.000000
RightFoot -4.038761 5.239465 3.616237
RightToeBase -1.318419 -0.000000 0.000000
575
root 4.896665 37.073011 0.761650 2.473098 31.073000 -3.881484
Spine 2.559479 5.337541 0.973646
Head 7.163806 -11.849639 6.938661
LeftShoulder -4.598531 -9.214862 9.651283
LeftArm 0.425787 -14.376987 -56.949182
LeftForeArm 6.277678 -0.000000 108.427323
LeftHand -14.195551 -0.000000 31.470584
LeftHandThumb1 -26.253704 0.000000 33.147579
RightShoulder -8.712607 -20.212230 1.732566
RightArm 16.541138 -26.076104 58.188213
RightForeArm 183.940487 -0.000000 29.207753
RightHand 0.630721 -0.000000 0.322767
RightHandThumb1 -24.326973 -0.000000 -32.862282
LeftUpLeg -5.316744 -10.947359 0.564189
LeftLeg 8.629302 -0.000000 -0.000000
LeftFoot -12.110192 -11.818606 -10.593768
LeftToeBase 13.149144 -0.000000 -0.000000
RightUpLeg -24.614875 12.864541 -3.589025
RightLeg 107.639617 -0.000000 -0.000000
RightFoot -3.918070 5.451774 3.494600
RightToeBase -1.329781 -0.000000 0.000000
576
root 4.873037 37.081308 0.744729 2.590258 31.225524 -4.072326
Spine 2.340318 5.205574 1.173674
Head 7.205898 -11.819196 6.872682
LeftShoulder -4.564949 -9.212856 9.643638
LeftArm 0.439026 -14.345986 -57.032084
LeftForeArm 6.309771 -0.000000 108.377542
LeftHand -14.179949 -0.000000 31.611858
LeftHandThumb1 -26.253704 0.000000 33.147579
RightShoulder -8.688516 -20.227017 1.693652
RightArm 16.458561 -26.016607 58.205732
RightForeArm 184.061107 -0.000000 29.189196
RightHand 0.654141 -0.000000 0.398436
RightHandThumb1 -24.326973 -0.000000 -32.862282
LeftUpLeg -5.657101 -10.926452 0.791902
LeftLeg 8.766313 -0.000000 -0.000000
LeftFoot -12.125529 -11.921568 -10.515612
LeftToeBase 13.119585 -0.000000 -0.000000
RightUpLeg -25.156518 12.866506 -3.574265
RightLeg 109.176933 -0.000000 -0.000000
RightFoot -3.674779 5.692614 3.566430
RightToeBase -1.528446 -0.000000 0.000000
577
root 4.852611 37.092509 0.727014 2.717004 31.373665 -4.252415
Spine 2.125966 5.085357 1.379132
Head 7.167191 -11.782753 6.827796
LeftShoulder -4.542927 -9.224339 9.593053
LeftArm 0.459500 -14.302338 -57.081681
LeftForeArm 6.366779 -0.000000 108.322730
LeftHand -14.225644 -0.000000 31.686631
LeftHandThumb1 -26.253704 0.000000 33.147579
RightShoulder -8.707334 -20.256384 1.688265
RightArm 16.412146 -26.008116 58.145436
RightForeArm 184.290938 -0.000000 29.193850
RightHand 0.646049 -0.000000 0.478710
RightHandThumb1 -24.326973 -0.000000 -32.862282
LeftUpLeg -5.953655 -10.968534 1.018038
LeftLeg 8.793721 -0.000000 -0.000000
LeftFoot -12.061369 -12.018274 -10.547220
LeftToeBase 13.135817 -0.000000 -0.000000
RightUpLeg -25.695221 12.890112 -3.593283
RightLeg 110.778622 -0.000000 -0.000000
RightFoot -3.449474 5.919572 3.572201
RightToeBase -1.416268 -0.000000 0.000000
578
root 4.829849 37.104986 0.705469 2.891636 31.516436 -4.446619
Spine 1.842382 4.965324 1.599031
Head 7.216043 -11.746360 6.736422
LeftShoulder -4.542805 -9.224053 9.620184
LeftArm 0.550076 -14.295439 -57.259321
LeftForeArm 6.419983 -0.000000 108.175230
LeftHand -14.323018 -0.000000 31.862776
LeftHandThumb1 -26.253704 0.000000 33.147579
RightShoulder -8.716760 -20.305114 1.676071
RightArm 16.361559 -25.932690 58.113369
RightForeArm 184.453922 -0.000000 29.170360
RightHand 0.657367 -0.000000 0.428031
RightHandThumb1 -24.326973 -0.000000 -32.862282
LeftUpLeg -6.308086 -11.020033 1.270406
LeftLeg 8.803875 -0.000000 -0.000000
LeftFoot -11.985625 -12.108600 -10.614543
LeftToeBase 13.218225 -0.000000 -0.000000
RightUpLeg -26.314169 12.894875 -3.650222
RightLeg 112.443936 -0.000000 -0.000000
RightFoot -3.244519 6.287865 3.481317
RightToeBase -0.948865 -0.000000 0.000000
579
root 4.798575 37.118873 0.670274 3.317414 31.679897 -4.661023
Spine 1.223147 4.839743 1.824708
Head 7.315758 -11.723973 6.636114
LeftShoulder -4.571385 -9.181484 9.638046
LeftArm 0.644761 -14.271509 -57.440577
LeftForeArm 6.428281 -0.000000 108.010081
LeftHand -14.330828 -0.000000 31.938524
LeftHandThumb1 -26.253704 0.000000 33.147579
RightShoulder -8.763093 -20.394805 1.669108
RightArm 16.273494 -25.916678 58.068757
RightForeArm 184.606686 -0.000000 29.199801
RightHand 0.791497 0.000000 0.567639
RightHandThumb1 -24.326973 -0.000000 -32.862282
LeftUpLeg -6.979434 -11.048215 1.597243
LeftLeg 8.858441 -0.000000 -0.000000
LeftFoot -11.883557 -12.229546 -10.677221
LeftToeBase 13.234911 -0.000000 -0.000000
RightUpLeg -27.243082 12.876619 -3.758203
RightLeg 114.178035 -0.000000 -0.000000
RightFoot -2.931856 6.585844 3.501279
RightToeBase -0.879774 -0.000000 0.000000
580
root 4.775679 37.133198 0.650406 3.477573 31.839996 -4.894180
Spine 0.942026 4.707620 2.106594
Head 7.269595 -11.641982 6.560455
LeftShoulder -4.563913 -9.209018 9.589589
LeftArm 0.607781 -14.238740 -57.499148
LeftForeArm 6.429839 -0.000000 107.921301
LeftHand -14.309969 -0.000000 31.896353
LeftHandThumb1 -26.253704 0.000000 33.147579
RightShoulder -8.773796 -20.409413 1.628219
RightArm 16.171900 -25.841992 58.069837
RightForeArm 184.719612 -0.000000 29.189935
RightHand 0.862789 -0.000000 0.578300
RightHandThumb1 -24.326973 -0.000000 -32.862282
LeftUpLeg -7.315861 -11.059241 1.885707
LeftLeg 8.811590 -0.000000 -0.000000
LeftFoot -11.773892 -12.366147 -10.714247
LeftToeBase 13.293762 -0.000000 -0.000000
RightUpLeg -27.864431 12.860427 -3.763981
RightLeg 115.928069 -0.000000 -0.000000
RightFoot -2.577623 6.678217 3.263965
RightToeBase -1.019560 -0.000000 0.000000
581
root 4.747755 37.149488 0.625900 3.689217 32.036931 -5.155969
Spine 0.579242 4.534284 2.420880
Head 7.286962 -11.576415 6.454635
LeftShoulder -4.562972 -9.189770 9.529715
LeftArm 0.593540 -14.212419 -57.552317
LeftForeArm 6.418071 -0.000000 107.817719
LeftHand -14.213124 -0.000000 31.972953
LeftHandThumb1 -26.253704 0.000000 33.147579
RightShoulder -8.770055 -20.442716 1.569923
RightArm 16.065669 -25.787676 58.076315
RightForeArm 184.861100 0.000000 29.175217
RightHand 0.899036 0.000000 0.694417
RightHandThumb1 -24.326973 -0.000000 -32.862282
LeftUpLeg -7.818756 -10.859771 2.192170
LeftLeg 8.955515 -0.000000 -0.000000
LeftFoot -11.704049 -12.666978 -10.626743
LeftToeBase 13.372742 -0.000000 -0.000000
RightUpLeg -28.557880 12.807077 -3.785253
RightLeg 117.667944 -0.000000 -0.000000
RightFoot -2.350153 6.931621 3.465482
RightToeBase -0.376949 -0.000000 0.000000
582
root 4.722573 37.169749 0.601422 3.912953 32.228345 -5.390432
Spine 0.225230 4.369815 2.712026
Head 7.277507 -11.499338 6.371229
LeftShoulder -4.575928 -9.146834 9.453625
LeftArm 0.608360 -14.172425 -57.582693
LeftForeArm 6.401260 0.000000 107.698247
LeftHand -14.093383 0.000000 32.127544
LeftHandThumb1 -26.253704 0.000000 33.147579
RightShoulder -8.790670 -20.474879 1.548143
RightArm 15.974855 -25.716130 58.066104
RightForeArm 184.999324 -0.000000 29.144501
RightHand 0.847739 -0.000000 0.763549
RightHandThumb1 -24.326973 -0.000000 -32.862282
LeftUpLeg -8.262841 -10.817110 2.483257
LeftLeg 8.971323 -0.000000 -0.000000
LeftFoot -11.545927 -12.827058 -10.574997
LeftToeBase 13.338384 -0.000000 -0.000000
RightUpLeg -29.243362 12.741832 -3.843386
RightLeg 119.412850 -0.000000 -0.000000
RightFoot -2.018766 7.109704 3.133122
RightToeBase -0.800567 -0.000000 0.000000
583
root 4.685766 37.190732 0.565311 4.383347 32.464501 -5.673569
Spine -0.482837 4.183471 3.036172
Head 7.392276 -11.456500 6.212223
LeftShoulder -4.597771 -9.068442 9.386127
LeftArm 0.584380 -14.117259 -57.615628
LeftForeArm 6.391037 -0.000000 107.594108
LeftHand -14.057212 -0.000000 32.234057
LeftHandThumb1 -26.253704 0.000000 33.147579
RightShoulder -8.858870 -20.566362 1.517583
RightArm 15.878014 -25.671423 58.059607
RightForeArm 185.032720 -0.000000 29.138810
RightHand 0.886095 0.000000 0.691433
RightHandThumb1 -24.326973 -0.000000 -32.862282
LeftUpLeg -9.025136 -10.828057 2.883509
LeftLeg 9.000112 -0.000000 -0.000000
LeftFoot -11.407954 -12.961889 -10.559969
LeftToeBase 13.391214 -0.000000 -0.000000
RightUpLeg -30.259824 12.644419 -3.934707
RightLeg 121.150639 -0.000000 -0.000000
RightFoot -1.610627 7.359053 3.337533
RightToeBase -0.715176 -0.000000 0.000000
